<svg xmlns="http://www.w3.org/2000/svg" width="32.51" height="28.446" viewBox="0 0 32.51 28.446"><defs><style>.a{fill:#687784;}</style></defs><path class="a" d="M1.161,65.225H31.349a1.161,1.161,0,0,0,1.161-1.161v-2.9A1.161,1.161,0,0,0,31.349,60H1.161A1.161,1.161,0,0,0,0,61.161v2.9A1.161,1.161,0,0,0,1.161,65.225Zm0,11.611H31.349a1.161,1.161,0,0,0,1.161-1.161v-2.9a1.161,1.161,0,0,0-1.161-1.161H1.161A1.161,1.161,0,0,0,0,72.772v2.9A1.161,1.161,0,0,0,1.161,76.836Zm0,11.611H31.349a1.161,1.161,0,0,0,1.161-1.161v-2.9a1.161,1.161,0,0,0-1.161-1.161H1.161A1.161,1.161,0,0,0,0,84.383v2.9A1.161,1.161,0,0,0,1.161,88.446Z" transform="translate(0 -60)"/></svg>